<svg xmlns="http://www.w3.org/2000/svg" viewBox="0 0 64 64" role="img" aria-label="Donut icon">
  <defs>
    <radialGradient id="dough" cx="50%" cy="50%" r="55%">
      <stop offset="0%" stop-color="#FEEFC3" />
      <stop offset="45%" stop-color="#FACC15" />
      <stop offset="100%" stop-color="#D97706" />
    </radialGradient>
    <linearGradient id="frosting" x1="18%" x2="84%" y1="14%" y2="84%">
      <stop offset="0%" stop-color="#A855F7" />
      <stop offset="52%" stop-color="#6366F1" />
      <stop offset="100%" stop-color="#0EA5E9" />
    </linearGradient>
    <radialGradient id="gloss" cx="32%" cy="30%" r="48%">
      <stop offset="0%" stop-color="#FFFFFF" stop-opacity="0.45" />
      <stop offset="95%" stop-color="#FFFFFF" stop-opacity="0" />
    </radialGradient>
  </defs>
  <g fill="none">
    <path d="M32 6c-14.36 0-26 11.64-26 26 0 14.36 11.64 26 26 26s26-11.64 26-26C58 17.64 46.36 6 32 6z" fill="url(#dough)" />
    <path d="M46.3 9.2c2.83 5.39.6 11.89-4.5 15.42a6.6 6.6 0 1 0 8.86 8.85C48.7 36.6 41.4 40.2 33.5 40.2c-10.8 0-19.5-6.36-19.5-14.8C14 16.3 22.9 9 34.5 9c4.2 0 8.18.74 11.8 2.2z" fill="url(#frosting)" />
    <path d="M32 23.5c-5 0-9 4-9 9s4 9 9 9c4.97 0 9-4 9-9s-4.03-9-9-9z" fill="#111827" opacity=".25" />
    <path d="M32 26.2c-3.5 0-6.3 2.77-6.3 6.2s2.8 6.2 6.3 6.2 6.3-2.78 6.3-6.21S35.5 26.2 32 26.2z" fill="#0F172A" opacity=".5" />
    <path d="M47.5 12c2.02 1.42 3.63 3.22 4.74 5.32-1.05.5-2.23.8-3.46.8-4.38 0-7.93-3.45-7.93-7.71 0-.39.03-.79.1-1.17 2.3.35 4.41 1.25 6.55 2.76z" fill="url(#gloss)" />
    <path d="M19.5 12.5l1.8.9M24 13l1.2 2.2M28 12.5l2.1 1.1M22 9l1.1 2.4M40.5 36.7l1.6 1.3M45 34.4l1 1.8M14.5 30l2 .3" stroke="#FDF2F8" stroke-width="1.6" stroke-linecap="round" />
  </g>
</svg>
