<svg xmlns="http://www.w3.org/2000/svg" viewBox="0 0 1200 630" role="img" aria-label="Donut Report Open Graph image">
  <defs>
    <linearGradient id="og-bg" x1="0%" x2="100%" y1="0%" y2="100%">
      <stop offset="0%" stop-color="#0f172a" />
      <stop offset="55%" stop-color="#111c36" />
      <stop offset="100%" stop-color="#1e293b" />
    </linearGradient>
    <radialGradient id="og-glow" cx="68%" cy="40%" r="48%">
      <stop offset="0%" stop-color="rgba(56,189,248,0.45)" />
      <stop offset="100%" stop-color="rgba(56,189,248,0)" />
    </radialGradient>
    <linearGradient id="og-title" x1="0%" x2="100%" y1="0%" y2="0%">
      <stop offset="0%" stop-color="#c084fc" />
      <stop offset="50%" stop-color="#818cf8" />
      <stop offset="100%" stop-color="#38bdf8" />
    </linearGradient>
    <radialGradient id="og-dough" cx="50%" cy="50%" r="55%">
      <stop offset="0%" stop-color="#fef3c7" />
      <stop offset="45%" stop-color="#facc15" />
      <stop offset="100%" stop-color="#d97706" />
    </radialGradient>
    <linearGradient id="og-frosting" x1="20%" x2="82%" y1="14%" y2="86%">
      <stop offset="0%" stop-color="#a855f7" />
      <stop offset="50%" stop-color="#6366f1" />
      <stop offset="100%" stop-color="#0ea5e9" />
    </linearGradient>
    <radialGradient id="og-gloss-highlight" cx="32%" cy="30%" r="48%">
      <stop offset="0%" stop-color="#ffffff" stop-opacity="0.48" />
      <stop offset="90%" stop-color="#ffffff" stop-opacity="0" />
    </radialGradient>
  </defs>
  <rect width="1200" height="630" fill="url(#og-bg)" />
  <circle cx="860" cy="310" r="260" fill="url(#og-glow)" />
  <g opacity="0.16">
    <path d="M0 120h1200M0 240h1200M0 360h1200M0 480h1200" stroke="#334155" stroke-width="1" stroke-dasharray="10 22" />
    <path d="M180 0v630M360 0v630M540 0v630M720 0v630M900 0v630M1080 0v630" stroke="#172033" stroke-width="1" stroke-dasharray="8 18" />
  </g>
  <g transform="translate(760 150) scale(3.4)">
    <g fill="none">
      <circle cx="32" cy="32" r="26" fill="url(#og-dough)" />
      <path d="M46.3 9.3c2.82 5.37.62 11.82-4.44 15.34a6.6 6.6 0 0 0 8.8 8.82C48.66 36.45 41.4 40 33.5 40 22.7 40 14 33.64 14 25.2 14 16.2 22.9 9 34.5 9c4.2 0 8.16.73 11.8 2.3z" fill="url(#og-frosting)" />
      <circle cx="32" cy="32" r="10" fill="#0f172a" opacity="0.22" />
      <circle cx="32" cy="32" r="6.2" fill="#0f172a" opacity="0.55" />
      <path d="M47.5 12c2 1.44 3.62 3.24 4.74 5.33-1.04.5-2.22.79-3.46.79-4.38 0-7.93-3.44-7.93-7.7 0-.4.03-.79.1-1.17 2.3.35 4.4 1.25 6.55 2.75z" fill="url(#og-gloss-highlight)" />
      <path d="M19.5 12.5l1.8.9M24 13l1.2 2.2M28 12.5l2.1 1.1M22 9l1.1 2.4M40.5 36.7l1.6 1.3M45 34.4l1 1.8M14.5 30l2 .3" stroke="#fdf2f8" stroke-width="1.6" stroke-linecap="round" />
    </g>
  </g>
  <text x="160" y="220" font-family="'Pretendard', 'Inter', 'Noto Sans KR', sans-serif" font-size="78" font-weight="700" letter-spacing="0.1em" fill="url(#og-title)">DONUT REPORT</text>
  <text x="160" y="285" font-family="'Pretendard', 'Inter', 'Noto Sans KR', sans-serif" font-size="42" font-weight="600" fill="#e2e8f0">Palantir AI 성장 스냅샷</text>
  <text x="160" y="338" font-family="'Pretendard', 'Inter', 'Noto Sans KR', sans-serif" font-size="28" font-weight="500" fill="#a5b4fc">정부 계약 안정성 · AIP 업셀 성장성 · 수익 다변화 로드맵</text>
  <g transform="translate(160 368)">
    <rect width="540" height="90" rx="38" fill="rgba(148,163,184,0.12)" stroke="rgba(148,163,184,0.5)" />
    <text x="270" y="58" text-anchor="middle" font-family="'Pretendard', 'Inter', 'Noto Sans KR', sans-serif" font-size="32" font-weight="600" fill="#f8fafc">FY27 목표 매출 $7.5B · 영업이익 $2.2B</text>
  </g>
  <g transform="translate(160 482)">
    <circle cx="18" cy="12" r="6" fill="#38bdf8" />
    <circle cx="18" cy="12" r="2.5" fill="#0f172a" />
    <text x="45" y="18" font-family="'Pretendard', 'Inter', 'Noto Sans KR', sans-serif" font-size="26" font-weight="500" fill="#cbd5f5">분석 + 데이터 소스 · 애널리스트 실전 인사이트 요약</text>
  </g>
  <text x="160" y="552" font-family="'Pretendard', 'Inter', 'Noto Sans KR', sans-serif" font-size="22" font-weight="500" fill="#64748b">donut-report.example.com</text>
</svg>
